<?xml version="1.0" encoding="UTF-8" standalone="no"?>
<!-- Created with Inkscape (http://www.inkscape.org/) -->

<svg
   xmlns:dc="http://purl.org/dc/elements/1.1/"
   xmlns:cc="http://creativecommons.org/ns#"
   xmlns:rdf="http://www.w3.org/1999/02/22-rdf-syntax-ns#"
   xmlns:svg="http://www.w3.org/2000/svg"
   xmlns="http://www.w3.org/2000/svg"
   xmlns:sodipodi="http://sodipodi.sourceforge.net/DTD/sodipodi-0.dtd"
   xmlns:inkscape="http://www.inkscape.org/namespaces/inkscape"
   version="1.1"
   id="svg4759"
   xml:space="preserve"
   width="675.2052"
   height="188.20242"
   viewBox="0 0 675.2052 188.20242"
   sodipodi:docname="logo-cirad-test.svg"
   inkscape:version="0.92.1 r15371"><metadata
     id="metadata4765"><rdf:RDF><cc:Work
         rdf:about=""><dc:format>image/svg+xml</dc:format><dc:type
           rdf:resource="http://purl.org/dc/dcmitype/StillImage" /><dc:title></dc:title></cc:Work></rdf:RDF></metadata><defs
     id="defs4763"><clipPath
       clipPathUnits="userSpaceOnUse"
       id="clipPath4779"><path
         d="m 1518.82,2422.34 c 5.49,5.71 10.98,11.3 16.49,16.78 -35.86,8.46 -72.87,13.08 -110.68,13.41 -156.32,1.36 -286.08,-58.21 -379.58,-156.05 92,87.88 215.65,140.61 362.86,139.34 37.89,-0.32 74.98,-4.97 110.91,-13.48 z"
         id="path4777"
         inkscape:connector-curvature="0" /></clipPath><linearGradient
       x1="0"
       y1="0"
       x2="1"
       y2="0"
       gradientUnits="userSpaceOnUse"
       gradientTransform="matrix(-640.987,324.914,324.914,640.987,1768.33,2125.43)"
       spreadMethod="pad"
       id="linearGradient4787"><stop
         style="stop-opacity:1;stop-color:#dee80a"
         offset="0"
         id="stop4781" /><stop
         style="stop-opacity:1;stop-color:#dee80a"
         offset="0.206731"
         id="stop4783" /><stop
         style="stop-opacity:1;stop-color:#33b540"
         offset="1"
         id="stop4785" /></linearGradient><clipPath
       clipPathUnits="userSpaceOnUse"
       id="clipPath4805"><path
         d="m 1958.67,2561.11 c -3.97,3.18 -8.15,6.16 -12.48,8.87 -89.94,56.21 -236.48,-4.02 -377.81,-139.83 37.18,-11.43 72.9,-26.96 106.87,-46.05 v 0 l -8.29,-21.5 26.52,10.82 c 101.64,-62.15 185.71,-156.49 240.67,-267.07 80.94,194.33 92.41,370.77 24.52,454.76 z"
         id="path4803"
         inkscape:connector-curvature="0" /></clipPath><linearGradient
       x1="0"
       y1="0"
       x2="1"
       y2="0"
       gradientUnits="userSpaceOnUse"
       gradientTransform="matrix(150.3,-236.5,-236.5,-150.3,1730.55,2548.43)"
       spreadMethod="pad"
       id="linearGradient4811"><stop
         style="stop-opacity:1;stop-color:#f1429a"
         offset="0"
         id="stop4807" /><stop
         style="stop-opacity:1;stop-color:#ec008c"
         offset="1"
         id="stop4809" /></linearGradient><clipPath
       clipPathUnits="userSpaceOnUse"
       id="clipPath4827"><path
         d="m 1648.54,2372.86 -0.05,-0.01 -149.77,-387.95 12.08,5.05 146.06,378.37 3.7,9.62 z"
         id="path4825"
         inkscape:connector-curvature="0" /></clipPath><linearGradient
       x1="0"
       y1="0"
       x2="1"
       y2="0"
       gradientUnits="userSpaceOnUse"
       gradientTransform="matrix(-5.32e-5,-1216.79,-1216.79,5.32e-5,1579.64,2433.94)"
       spreadMethod="pad"
       id="linearGradient4833"><stop
         style="stop-opacity:1;stop-color:#dee80a"
         offset="0"
         id="stop4829" /><stop
         style="stop-opacity:1;stop-color:#33b540"
         offset="1"
         id="stop4831" /></linearGradient><clipPath
       clipPathUnits="userSpaceOnUse"
       id="clipPath4843"><path
         d="m 1498.77,1984.9 -175.43,-457.85 13.59,-19.49 6.75,17.6 v 0 l 181.8,470.94 z"
         id="path4841"
         inkscape:connector-curvature="0" /></clipPath><radialGradient
       fx="0"
       fy="0"
       cx="0"
       cy="0"
       r="1"
       gradientUnits="userSpaceOnUse"
       gradientTransform="matrix(186.928,0,0,-186.928,1424.41,1751.83)"
       spreadMethod="pad"
       id="radialGradient4851"><stop
         style="stop-opacity:1;stop-color:#a47343"
         offset="0"
         id="stop4845" /><stop
         style="stop-opacity:1;stop-color:#a47343"
         offset="0.09019779"
         id="stop4847" /><stop
         style="stop-opacity:1;stop-color:#565323"
         offset="1"
         id="stop4849" /></radialGradient><clipPath
       clipPathUnits="userSpaceOnUse"
       id="clipPath4861"><path
         d="m 1837.07,1919.4 c 33.01,52.79 61.27,105.96 84.66,158.19 0.09,0.57 0.5,1.08 0.73,1.64 0.02,0 0.02,0.01 0.03,0.03 0,0 0.01,0 0.01,0.03 -53.35,111.96 -136.4,208.09 -237.47,272.23 l -318.78,-825.75 c 137.75,11.36 327.28,164.01 470.82,393.63 z"
         id="path4859"
         inkscape:connector-curvature="0" /></clipPath><linearGradient
       x1="0"
       y1="0"
       x2="1"
       y2="0"
       gradientUnits="userSpaceOnUse"
       gradientTransform="matrix(-291.774,-470.819,-470.819,291.774,1820.94,2232.09)"
       spreadMethod="pad"
       id="linearGradient4867"><stop
         style="stop-opacity:1;stop-color:#bd3d35"
         offset="0"
         id="stop4863" /><stop
         style="stop-opacity:1;stop-color:#ae1c22"
         offset="1"
         id="stop4865" /></linearGradient><clipPath
       clipPathUnits="userSpaceOnUse"
       id="clipPath4883"><path
         d="m 1456.66,1217.21 c -308.32,7.45 -575.664,309.02 -575.664,637.99 0,173.89 59.242,331.62 164.054,441.28 -115.202,-110.02 -180.769,-275.07 -180.769,-457.99 0,-329 267.339,-630.51 575.689,-638 159.04,-3.82 289.9,55.46 383.79,153.7 -92.44,-88.22 -217.28,-140.61 -367.1,-136.98 z"
         id="path4881"
         inkscape:connector-curvature="0" /></clipPath><linearGradient
       x1="0"
       y1="0"
       x2="1"
       y2="0"
       gradientUnits="userSpaceOnUse"
       gradientTransform="matrix(-575.648,637.972,637.972,575.648,1541.02,1293.31)"
       spreadMethod="pad"
       id="linearGradient4893"><stop
         style="stop-opacity:1;stop-color:#8cd024"
         offset="0"
         id="stop4885" /><stop
         style="stop-opacity:1;stop-color:#66c430"
         offset="0.18326428"
         id="stop4887" /><stop
         style="stop-opacity:1;stop-color:#66c430"
         offset="0.358289"
         id="stop4889" /><stop
         style="stop-opacity:1;stop-color:#34632d"
         offset="1"
         id="stop4891" /></linearGradient><clipPath
       clipPathUnits="userSpaceOnUse"
       id="clipPath4905"><path
         d="m 1857.93,1898.51 h 0.01 c 142.71,228.29 197.22,464.12 148.58,593.42 -11.86,35.83 -31.09,64.2 -57.97,82.91 l -14.47,9.97 c 1.81,-1.34 3.58,-2.73 5.31,-4.17 114.35,-94.69 71.27,-383.54 -102.32,-661.24 h -0.02 0.02 c -143.54,-229.62 -333.06,-382.27 -470.82,-393.63 l -8.18,-21.21 c 139.12,-10.18 345.92,147.68 499.87,393.95 z"
         id="path4903"
         inkscape:connector-curvature="0" /></clipPath><linearGradient
       x1="0"
       y1="0"
       x2="1"
       y2="0"
       gradientUnits="userSpaceOnUse"
       gradientTransform="matrix(628.551,1040.07,1040.07,-628.551,1429.62,1469.75)"
       spreadMethod="pad"
       id="linearGradient4925"><stop
         style="stop-opacity:1;stop-color:#ef2d32"
         offset="0"
         id="stop4907" /><stop
         style="stop-opacity:1;stop-color:#ef2d32"
         offset="0.004808"
         id="stop4909" /><stop
         style="stop-opacity:1;stop-color:#420314"
         offset="0.35875554"
         id="stop4911" /><stop
         style="stop-opacity:1;stop-color:#420314"
         offset="0.447115"
         id="stop4913" /><stop
         style="stop-opacity:1;stop-color:#420314"
         offset="0.56271348"
         id="stop4915" /><stop
         style="stop-opacity:1;stop-color:#420314"
         offset="0.6875"
         id="stop4917" /><stop
         style="stop-opacity:1;stop-color:#ec008c"
         offset="0.879808"
         id="stop4919" /><stop
         style="stop-opacity:1;stop-color:#ec008c"
         offset="0.89945962"
         id="stop4921" /><stop
         style="stop-opacity:1;stop-color:#67052c"
         offset="1"
         id="stop4923" /></linearGradient><clipPath
       clipPathUnits="userSpaceOnUse"
       id="clipPath4937"><path
         d="m 1937.48,2045.45 c -22.35,-48.59 -48.9,-97.93 -79.54,-146.94 -153.95,-246.27 -360.75,-404.13 -499.87,-393.95 l -14.39,20.6 -6.79,-17.6 c -15.77,3.32 -30.43,9.06 -43.88,17.47 -3.25,2.05 -6.4,4.22 -9.45,6.52 l -13.79,9.52 c -26.92,18.69 -46.14,47.07 -57.98,82.91 -48.64,129.28 5.87,365.09 148.56,593.39 h 0.02 c 48.78,78.07 102.89,147.23 158.45,204.97 -35.93,8.51 -73.02,13.16 -110.91,13.48 -147.21,1.27 -270.86,-51.46 -362.86,-139.34 -104.812,-109.66 -164.054,-267.39 -164.054,-441.28 0,-328.97 267.344,-630.54 575.664,-637.99 149.82,-3.63 274.66,48.76 367.1,136.98 105.06,109.95 163.8,268.7 163.8,442.42 0,86.11 -17.9,170.74 -50.08,248.84 z"
         id="path4935"
         inkscape:connector-curvature="0" /></clipPath><linearGradient
       x1="0"
       y1="0"
       x2="1"
       y2="0"
       gradientUnits="userSpaceOnUse"
       gradientTransform="matrix(-5.32e-5,-1216.74,-1216.74,5.32e-5,1434.28,2433.9)"
       spreadMethod="pad"
       id="linearGradient4943"><stop
         style="stop-opacity:1;stop-color:#dee80a"
         offset="0"
         id="stop4939" /><stop
         style="stop-opacity:1;stop-color:#33b540"
         offset="1"
         id="stop4941" /></linearGradient><clipPath
       clipPathUnits="userSpaceOnUse"
       id="clipPath4953"><path
         d="m 1360.35,2217.37 c -142.69,-228.3 -197.2,-464.11 -148.56,-593.39 11.84,-35.84 31.06,-64.22 57.98,-82.91 l 14.44,-9.98 c -1.8,1.35 -3.58,2.74 -5.31,4.18 -114.34,94.69 -71.26,383.49 102.34,661.23 v 0 c 52.22,83.52 110.53,156.89 170.22,217 -10.78,3.28 -21.65,6.26 -32.64,8.84 -55.56,-57.74 -109.67,-126.9 -158.45,-204.97 z"
         id="path4951"
         inkscape:connector-curvature="0" /></clipPath><linearGradient
       x1="0"
       y1="0"
       x2="1"
       y2="0"
       gradientUnits="userSpaceOnUse"
       gradientTransform="matrix(357.08,0,0,-357.08,1194.38,1976.72)"
       spreadMethod="pad"
       id="linearGradient4961"><stop
         style="stop-opacity:1;stop-color:#796527"
         offset="0"
         id="stop4955" /><stop
         style="stop-opacity:1;stop-color:#d07d20"
         offset="0.67653048"
         id="stop4957" /><stop
         style="stop-opacity:1;stop-color:#d07d20"
         offset="1"
         id="stop4959" /></linearGradient><clipPath
       clipPathUnits="userSpaceOnUse"
       id="clipPath4971"><path
         d="m 1551.46,2413.5 c -59.69,-60.11 -118,-133.48 -170.22,-217 v 0 c -163.01,-260.8 -210.93,-531.37 -121.47,-641.78 3.94,-3.15 8.05,-6.11 12.35,-8.78 15.49,-9.68 32.66,-15.91 51.18,-18.93 l 175.42,457.89 149.77,387.95 0.02,0.03 c -31.02,16.61 -63.45,30.3 -97.05,40.62 z"
         id="path4969"
         inkscape:connector-curvature="0" /></clipPath><linearGradient
       x1="0"
       y1="0"
       x2="1"
       y2="0"
       gradientUnits="userSpaceOnUse"
       gradientTransform="matrix(-229.18,-890.462,-890.462,229.18,1520.02,2421.59)"
       spreadMethod="pad"
       id="linearGradient4979"><stop
         style="stop-opacity:1;stop-color:#d99b2c"
         offset="0"
         id="stop4973" /><stop
         style="stop-opacity:1;stop-color:#807328"
         offset="0.87446985"
         id="stop4975" /><stop
         style="stop-opacity:1;stop-color:#807328"
         offset="1"
         id="stop4977" /></linearGradient></defs><sodipodi:namedview
     pagecolor="#ffffff"
     bordercolor="#666666"
     borderopacity="1"
     objecttolerance="10"
     gridtolerance="10"
     guidetolerance="10"
     inkscape:pageopacity="0"
     inkscape:pageshadow="2"
     inkscape:window-width="1366"
     inkscape:window-height="713"
     id="namedview4761"
     showgrid="false"
     inkscape:zoom="1.1602401"
     inkscape:cx="195.27247"
     inkscape:cy="70.230947"
     inkscape:window-x="0"
     inkscape:window-y="0"
     inkscape:window-maximized="1"
     inkscape:current-layer="g4769" /><g
     id="g4767"
     inkscape:groupmode="layer"
     inkscape:label="ink_ext_XXXXXX"
     transform="matrix(1.3333333,0,0,-1.3333333,-115.23746,348.24454)"><g
       id="g4769"
       transform="scale(0.1)"><path
         d="m 1937.48,2045.45 c 32.18,-78.1 50.08,-162.73 50.08,-248.84 0,-173.72 -58.74,-332.47 -163.8,-442.42 115.52,110.24 180.52,276.4 180.52,459.13 0,90.04 -19.59,178.5 -54.58,259.53 -3.9,-9.08 -7.98,-18.24 -12.22,-27.4"
         style="fill:#8cd024;fill-opacity:1;fill-rule:nonzero;stroke:none"
         id="path4771"
         inkscape:connector-curvature="0" /><g
         id="g4773"><g
           id="g4775"
           clip-path="url(#clipPath4779)"><path
             d="m 1518.82,2422.34 c 5.49,5.71 10.98,11.3 16.49,16.78 -35.86,8.46 -72.87,13.08 -110.68,13.41 -156.32,1.36 -286.08,-58.21 -379.58,-156.05 92,87.88 215.65,140.61 362.86,139.34 37.89,-0.32 74.98,-4.97 110.91,-13.48"
             style="fill:url(#linearGradient4787);fill-opacity:1;fill-rule:nonzero;stroke:none"
             id="path4789"
             inkscape:connector-curvature="0" /></g></g><path
         d="m 1535.25,2439.08 c -2.62,-2.64 -5.25,-5.27 -7.87,-7.93 -0.17,-0.17 -0.36,-0.36 -0.53,-0.54 -2.66,-2.7 -5.31,-5.43 -7.95,-8.2 -0.03,-0.02 -0.06,-0.03 -0.08,-0.07 10.99,-2.58 21.86,-5.56 32.64,-8.84 5.64,5.67 11.27,11.2 16.92,16.65 -10.91,3.34 -21.93,6.35 -33.07,8.97 -0.03,-0.02 -0.03,-0.04 -0.06,-0.04"
         style="fill:#cc7d21;fill-opacity:1;fill-rule:nonzero;stroke:none"
         id="path4791"
         inkscape:connector-curvature="0" /><path
         d="m 1568.38,2430.15 c -5.65,-5.45 -11.28,-10.98 -16.92,-16.65 33.61,-10.32 66.04,-24.02 97.08,-40.64 l 26.71,11.24 c -33.94,19.08 -69.7,34.63 -106.87,46.05"
         style="fill:#d5814d;fill-opacity:1;fill-rule:nonzero;stroke:none"
         id="path4793"
         inkscape:connector-curvature="0" /><path
         d="m 1693.48,2373.42 -8.44,-21.88 c 101.06,-64.16 184.11,-160.29 237.46,-272.28 4.02,9.05 7.9,18.08 11.65,27.09 -54.96,110.56 -139.04,204.92 -240.67,267.07"
         style="fill:#d01164;fill-opacity:1;fill-rule:nonzero;stroke:none"
         id="path4795"
         inkscape:connector-curvature="0" /><path
         d="m 1693.48,2373.42 -26.52,-10.82 v 0 c 6.08,-3.57 12.12,-7.27 18.08,-11.06 l 8.44,21.88 c -0.01,0.02 0,0 0,0"
         style="fill:#921223;fill-opacity:1;fill-rule:nonzero;stroke:none"
         id="path4797"
         inkscape:connector-curvature="0" /><g
         id="g4799"><g
           id="g4801"
           clip-path="url(#clipPath4805)"><path
             d="m 1958.67,2561.11 c -3.97,3.18 -8.15,6.16 -12.48,8.87 -89.94,56.21 -236.48,-4.02 -377.81,-139.83 37.18,-11.43 72.9,-26.96 106.87,-46.05 v 0 l -8.29,-21.5 26.52,10.82 c 101.64,-62.15 185.71,-156.49 240.67,-267.07 80.94,194.33 92.41,370.77 24.52,454.76"
             style="fill:url(#linearGradient4811);fill-opacity:1;fill-rule:nonzero;stroke:none"
             id="path4813"
             inkscape:connector-curvature="0" /></g></g><path
         d="m 1510.8,1989.95 14.68,6.15 141.48,366.5 c -3.34,1.95 -6.74,3.86 -10.1,5.72 L 1510.8,1989.95"
         style="fill:#bd3c35;fill-opacity:1;fill-rule:nonzero;stroke:none"
         id="path4815"
         inkscape:connector-curvature="0" /><path
         d="m 1660.56,2377.94 -3.7,-9.62 c 3.36,-1.86 6.76,-3.77 10.1,-5.72 v 0 0 l 8.29,21.5 c -0.01,0.02 0.01,0 0.01,0 l -14.7,-6.16"
         style="fill:#be1565;fill-opacity:1;fill-rule:nonzero;stroke:none"
         id="path4817"
         inkscape:connector-curvature="0" /><path
         d="m 1685.04,2351.54 c -5.96,3.79 -12,7.49 -18.08,11.06 l -141.48,-366.5 26.67,11.19 132.89,344.25"
         style="fill:#89191a;fill-opacity:1;fill-rule:nonzero;stroke:none"
         id="path4819"
         inkscape:connector-curvature="0" /><g
         id="g4821"><g
           id="g4823"
           clip-path="url(#clipPath4827)"><path
             d="m 1648.54,2372.86 -0.05,-0.01 -149.77,-387.95 12.08,5.05 146.06,378.37 3.7,9.62 -12.02,-5.08"
             style="fill:url(#linearGradient4833);fill-opacity:1;fill-rule:nonzero;stroke:none"
             id="path4835"
             inkscape:connector-curvature="0" /></g></g><g
         id="g4837"><g
           id="g4839"
           clip-path="url(#clipPath4843)"><path
             d="m 1498.77,1984.9 -175.43,-457.85 13.59,-19.49 6.75,17.6 v 0 l 181.8,470.94 -26.71,-11.2"
             style="fill:url(#radialGradient4851);fill-opacity:1;fill-rule:nonzero;stroke:none"
             id="path4853"
             inkscape:connector-curvature="0" /></g></g><g
         id="g4855"><g
           id="g4857"
           clip-path="url(#clipPath4861)"><path
             d="m 1837.07,1919.4 c 33.01,52.79 61.27,105.96 84.66,158.19 0.09,0.57 0.5,1.08 0.73,1.64 0.02,0 0.02,0.01 0.03,0.03 0,0 0.01,0 0.01,0.03 -53.35,111.96 -136.4,208.09 -237.47,272.23 l -318.78,-825.75 c 137.75,11.36 327.28,164.01 470.82,393.63"
             style="fill:url(#linearGradient4867);fill-opacity:1;fill-rule:nonzero;stroke:none"
             id="path4869"
             inkscape:connector-curvature="0" /></g></g><path
         d="m 1366.25,1525.77 185.92,481.52 -26.69,-11.19 -181.8,-470.94 c 7.36,-0.24 14.89,-0.03 22.57,0.61"
         style="fill:#f04338;fill-opacity:1;fill-rule:nonzero;stroke:none"
         id="path4871"
         inkscape:connector-curvature="0" /><path
         d="m 1343.68,1525.16 14.39,-20.6 8.18,21.21 c -7.68,-0.64 -15.21,-0.85 -22.57,-0.61"
         style="fill:#ed1b29;fill-opacity:1;fill-rule:nonzero;stroke:none"
         id="path4873"
         inkscape:connector-curvature="0" /><path
         d="m 1051.19,2302.77 -10.94,-10.95 c 1.59,1.56 3.2,3.13 4.8,4.66 2.03,2.13 4.07,4.21 6.14,6.29"
         style="fill:#34632d;fill-opacity:1;fill-rule:nonzero;stroke:none"
         id="path4875"
         inkscape:connector-curvature="0" /><g
         id="g4877"><g
           id="g4879"
           clip-path="url(#clipPath4883)"><path
             d="m 1456.66,1217.21 c -308.32,7.45 -575.664,309.02 -575.664,637.99 0,173.89 59.242,331.62 164.054,441.28 -115.202,-110.02 -180.769,-275.07 -180.769,-457.99 0,-329 267.339,-630.51 575.689,-638 159.04,-3.82 289.9,55.46 383.79,153.7 -92.44,-88.22 -217.28,-140.61 -367.1,-136.98"
             style="fill:url(#linearGradient4893);fill-opacity:1;fill-rule:nonzero;stroke:none"
             id="path4895"
             inkscape:connector-curvature="0" /></g></g><path
         d="m 1817.64,1347.91 10.94,10.96 c -1.59,-1.58 -3.19,-3.13 -4.82,-4.68 -2.02,-2.11 -4.06,-4.2 -6.12,-6.28"
         style="fill:#dee80a;fill-opacity:1;fill-rule:nonzero;stroke:none"
         id="path4897"
         inkscape:connector-curvature="0" /><g
         id="g4899"><g
           id="g4901"
           clip-path="url(#clipPath4905)"><path
             d="m 1857.93,1898.51 h 0.01 c 142.71,228.29 197.22,464.12 148.58,593.42 -11.86,35.83 -31.09,64.2 -57.97,82.91 l -14.47,9.97 c 1.81,-1.34 3.58,-2.73 5.31,-4.17 114.35,-94.69 71.27,-383.54 -102.32,-661.24 h -0.02 0.02 c -143.54,-229.62 -333.06,-382.27 -470.82,-393.63 l -8.18,-21.21 c 139.12,-10.18 345.92,147.68 499.87,393.95 h -0.01"
             style="fill:url(#linearGradient4925);fill-opacity:1;fill-rule:nonzero;stroke:none"
             id="path4927"
             inkscape:connector-curvature="0" /></g></g><path
         d="m 1568.38,2430.15 c 141.33,135.81 287.87,196.04 377.81,139.83 4.31,-2.71 8.43,-5.62 12.35,-8.77 -5.82,7.16 -12.18,13.66 -19.15,19.43 -0.23,0.14 -0.36,0.25 -0.4,0.32 -1.55,1.27 -3.16,2.51 -4.74,3.72 -0.1,0.07 -0.17,0.13 -0.27,0.2 l -8.67,5.99 c -92.53,57.83 -244.96,-7.6 -390.01,-151.75 0.01,0 0.01,0 0.01,0 11.14,-2.62 22.16,-5.63 33.07,-8.97"
         style="fill:#ec008c;fill-opacity:1;fill-rule:nonzero;stroke:none"
         id="path4929"
         inkscape:connector-curvature="0" /><g
         id="g4931"><g
           id="g4933"
           clip-path="url(#clipPath4937)"><path
             d="m 1937.48,2045.45 c -22.35,-48.59 -48.9,-97.93 -79.54,-146.94 -153.95,-246.27 -360.75,-404.13 -499.87,-393.95 l -14.39,20.6 -6.79,-17.6 c -15.77,3.32 -30.43,9.06 -43.88,17.47 -3.25,2.05 -6.4,4.22 -9.45,6.52 l -13.79,9.52 c -26.92,18.69 -46.14,47.07 -57.98,82.91 -48.64,129.28 5.87,365.09 148.56,593.39 h 0.02 c 48.78,78.07 102.89,147.23 158.45,204.97 -35.93,8.51 -73.02,13.16 -110.91,13.48 -147.21,1.27 -270.86,-51.46 -362.86,-139.34 -104.812,-109.66 -164.054,-267.39 -164.054,-441.28 0,-328.97 267.344,-630.54 575.664,-637.99 149.82,-3.63 274.66,48.76 367.1,136.98 105.06,109.95 163.8,268.7 163.8,442.42 0,86.11 -17.9,170.74 -50.08,248.84"
             style="fill:url(#linearGradient4943);fill-opacity:1;fill-rule:nonzero;stroke:none"
             id="path4945"
             inkscape:connector-curvature="0" /></g></g><g
         id="g4947"><g
           id="g4949"
           clip-path="url(#clipPath4953)"><path
             d="m 1360.35,2217.37 c -142.69,-228.3 -197.2,-464.11 -148.56,-593.39 11.84,-35.84 31.06,-64.22 57.98,-82.91 l 14.44,-9.98 c -1.8,1.35 -3.58,2.74 -5.31,4.18 -114.34,94.69 -71.26,383.49 102.34,661.23 v 0 c 52.22,83.52 110.53,156.89 170.22,217 -10.78,3.28 -21.65,6.26 -32.64,8.84 -55.56,-57.74 -109.67,-126.9 -158.45,-204.97 h -0.02"
             style="fill:url(#linearGradient4961);fill-opacity:1;fill-rule:nonzero;stroke:none"
             id="path4963"
             inkscape:connector-curvature="0" /></g></g><g
         id="g4965"><g
           id="g4967"
           clip-path="url(#clipPath4971)"><path
             d="m 1551.46,2413.5 c -59.69,-60.11 -118,-133.48 -170.22,-217 v 0 c -163.01,-260.8 -210.93,-531.37 -121.47,-641.78 3.94,-3.15 8.05,-6.11 12.35,-8.78 15.49,-9.68 32.66,-15.91 51.18,-18.93 l 175.42,457.89 149.77,387.95 0.02,0.03 c -31.02,16.61 -63.45,30.3 -97.05,40.62"
             style="fill:url(#linearGradient4979);fill-opacity:1;fill-rule:nonzero;stroke:none"
             id="path4981"
             inkscape:connector-curvature="0" /></g></g><path
         d="m 1272.12,1545.94 c -4.35,2.67 -8.49,5.67 -12.47,8.88 9.55,-11.83 20.64,-21.82 33.36,-29.79 13.45,-8.41 28.11,-14.15 43.88,-17.47 l -13.59,19.45 c -18.52,3.02 -35.69,9.25 -51.18,18.93"
         style="fill:#63652a;fill-opacity:1;fill-rule:nonzero;stroke:none"
         id="path4983"
         inkscape:connector-curvature="0" /><path
         d="m 2777.59,1248.54 c -254.57,0 -394.75,159.68 -394.75,449.6 0,339.33 202.99,460.22 392.96,460.22 123.91,0 234,-54.38 304.38,-149.62 l -109.54,-90.54 c -59.45,68.6 -123.71,103.33 -191.27,103.33 -136.08,0 -217.3,-117.57 -217.3,-314.55 0,-207.42 85.31,-321.63 240.27,-321.63 67.66,0 129.46,21.34 198.32,68.84 l 64.52,-114.71 c -75.94,-57.92 -179.95,-90.94 -287.59,-90.94 v 0"
         style="fill:#33b540;fill-opacity:1;fill-rule:nonzero;stroke:none"
         id="path4985"
         inkscape:connector-curvature="0" /><path
         d="m 3416.33,1273.36 h -179.18 v 858.42 h 179.18 v -858.42 0"
         style="fill:#33b540;fill-opacity:1;fill-rule:nonzero;stroke:none"
         id="path4987"
         inkscape:connector-curvature="0" /><path
         d="m 3325.88,2301 c -63.67,0 -106.43,40.67 -106.43,101.15 0,59.63 44.79,102.91 106.43,102.91 61.64,0 106.41,-43.28 106.41,-102.91 0,-58.6 -44.77,-101.15 -106.41,-101.15 v 0"
         style="fill:#ec008c;fill-opacity:1;fill-rule:nonzero;stroke:none"
         id="path4989"
         inkscape:connector-curvature="0" /><path
         d="m 3847.91,1273.36 h -179.22 v 731.65 l -0.12,0.87 -13.96,125.9 h 142.62 l 19.06,-116 9.34,-56.74 20.66,53.62 c 34.14,88.49 112.44,145.64 199.45,145.64 45.57,0 89.08,-9.81 123.87,-27.79 l -30.63,-147.34 c -39.41,18.88 -76.23,27.77 -114.49,27.77 -100.04,0 -172.63,-79.7 -176.54,-193.78 l -0.04,-543.8 v 0"
         style="fill:#33b540;fill-opacity:1;fill-rule:nonzero;stroke:none"
         id="path4991"
         inkscape:connector-curvature="0" /><path
         d="m 4638.3,2035.71 c -154.96,0 -240.25,-129.32 -240.25,-364.11 0,-200.51 67.11,-302.16 199.55,-302.16 118.3,0 188.98,86.17 188.98,169.53 v 458.11 9.97 l -9,4.21 c -31.9,14.84 -86.53,24.45 -139.28,24.45 z m -86.7,-785.37 c -219.67,0 -331.05,139.33 -331.05,414.19 0,313.8 161.95,493.83 444.29,493.83 53.09,0 174.54,-12.14 299.22,-57.21 v -673.64 -0.75 l 0.08,-0.74 14.3,-152.66 h -151.29 l -10.63,80.14 -1.4,10.52 -4.08,45.05 -23.79,-38.1 -6.16,-8.9 c -48.9,-71 -132.57,-111.73 -229.49,-111.73 v 0"
         style="fill:#33b540;fill-opacity:1;fill-rule:nonzero;stroke:none"
         id="path4993"
         inkscape:connector-curvature="0" /><path
         d="m 5588.11,2035.71 c -152.7,0 -240.3,-126.92 -240.3,-348.2 0,-209.89 66.57,-316.28 197.85,-316.28 114.11,0 190.75,83.95 190.75,162.41 v 458.1 10.18 l -9.3,4.11 c -30.41,13.56 -79.2,29.68 -139,29.68 z m -84.89,-788.92 c -220.84,0 -332.85,141.76 -332.85,421.25 0,302.42 158.05,490.32 412.48,490.32 57.99,0 98.36,-9.92 133.32,-20.6 l 20.24,-6.17 v 21.11 318.72 h 177.52 v -1040.41 -0.7 l 0.03,-0.73 14.36,-156.22 h -149.77 l -12.2,82.13 -1.55,10.3 -5.78,41.03 -22.11,-33.97 -6.13,-9.14 c -50.06,-74.27 -133.01,-116.92 -227.56,-116.92 v 0"
         style="fill:#33b540;fill-opacity:1;fill-rule:nonzero;stroke:none"
         id="path4995"
         inkscape:connector-curvature="0" /></g></g></svg>